<?xml version="1.0" standalone="no"?>
<!DOCTYPE svg PUBLIC "-//W3C//DTD SVG 20010904//EN"
 "http://www.w3.org/TR/2001/REC-SVG-20010904/DTD/svg10.dtd">
<svg version="1.0" xmlns="http://www.w3.org/2000/svg"
 width="661.000000pt" height="220.000000pt" viewBox="0 0 661.000000 220.000000"
 preserveAspectRatio="xMidYMid meet">

<g transform="translate(0.000000,220.000000) scale(0.100000,-0.100000)"
fill="#ffffff" stroke="none">
<path d="M1048 2190 c-109 -17 -317 -101 -411 -164 l-37 -26 -68 41 c-86 53
-90 55 -72 36 8 -8 118 -79 244 -157 l228 -142 95 27 c86 25 107 27 217 23
102 -4 134 -10 203 -35 104 -38 182 -85 248 -150 108 -105 171 -224 203 -382
l18 -91 49 -31 c105 -67 374 -228 406 -243 30 -15 32 -15 14 -1 -11 9 -41 28
-66 43 l-47 26 -4 195 c-5 188 -6 200 -38 296 -60 184 -132 305 -258 434 -128
131 -309 236 -489 282 -88 22 -344 33 -435 19z"/>
<path d="M42 1955 c10 -11 75 -55 145 -99 93 -60 135 -93 158 -126 30 -42 153
-130 267 -190 l36 -19 17 25 c9 15 13 30 8 34 -13 14 -502 313 -578 355 -39
21 -62 30 -53 20z"/>
<path d="M440 1853 c-11 -14 -19 -31 -17 -36 4 -14 246 -166 276 -174 34 -9
75 9 79 33 2 17 -12 31 -65 66 -88 57 -229 138 -242 138 -5 0 -19 -12 -31 -27z"/>
<path d="M110 1751 c0 -4 36 -31 80 -59 59 -38 80 -57 80 -72 0 -22 -58 -170
-66 -170 -3 0 -19 7 -36 16 -58 30 -16 -7 85 -74 130 -87 272 -172 286 -172 6
0 11 11 11 24 0 20 36 147 57 202 2 7 -95 73 -241 163 -135 83 -248 151 -251
151 -3 0 -5 -4 -5 -9z"/>
<path d="M183 1303 c-11 -68 -8 -257 6 -328 71 -354 299 -646 610 -781 186
-80 403 -111 577 -80 116 20 251 64 351 115 l80 40 89 -79 c49 -44 92 -80 95
-80 4 0 52 49 107 108 l101 108 -79 80 -80 79 46 65 c25 36 49 71 53 79 7 11
32 -1 117 -52 60 -36 118 -69 129 -73 49 -17 -23 32 -249 171 -260 160 -294
177 -307 153 -25 -45 -46 -61 -72 -54 -14 3 -77 55 -139 115 l-113 109 -113
-106 -113 -106 122 -122 123 -123 -49 -21 c-80 -34 -138 -42 -278 -38 -103 3
-145 9 -191 26 -80 29 -197 104 -258 165 -103 103 -185 266 -195 389 l-6 70
-51 38 c-57 43 -282 180 -296 180 -5 0 -12 -21 -17 -47z"/>
<path d="M1886 976 c-3 -13 -9 -31 -12 -39 -7 -20 69 -77 207 -157 l104 -60
12 32 c6 18 12 38 12 45 1 18 -244 181 -296 197 -16 5 -22 1 -27 -18z"/>
<path d="M3490 824 l0 -156 -22 7 c-13 4 -48 9 -79 12 -97 9 -184 -33 -238
-113 l-31 -47 0 76 0 77 -75 0 -75 0 0 -220 0 -220 75 0 75 0 0 77 0 76 29
-39 c76 -106 129 -124 339 -116 l152 5 0 91 0 91 93 -93 92 -92 95 0 95 0
-115 115 -115 115 105 105 105 105 -100 0 -100 0 -77 -77 -78 -78 0 228 0 227
-75 0 -75 0 0 -156z m0 -361 c0 -136 -1 -146 -16 -125 -14 20 -21 21 -69 16
-52 -6 -56 -5 -90 29 -29 29 -35 42 -35 77 0 34 6 48 34 76 31 31 39 34 94 34
52 0 62 3 67 20 3 11 8 20 11 20 2 0 4 -66 4 -147z"/>
<path d="M4310 841 c0 -77 -3 -146 -6 -154 -4 -12 -12 -13 -42 -5 -107 30
-231 -16 -286 -105 -77 -124 -28 -257 119 -323 47 -21 60 -22 201 -17 l152 6
6 51 c3 28 6 88 6 134 0 79 2 85 29 113 35 34 77 38 112 10 23 -18 24 -26 27
-165 l4 -146 69 0 c38 0 69 3 70 8 1 8 6 59 8 86 1 14 12 8 55 -31 86 -79 174
-92 257 -38 l36 24 12 -25 c10 -22 16 -24 76 -24 l65 0 0 220 0 220 -64 0
c-43 0 -67 -5 -76 -15 -10 -12 -18 -11 -61 5 -99 39 -179 22 -252 -54 -44 -47
-57 -55 -57 -35 0 24 -45 72 -84 90 -58 26 -117 24 -176 -6 l-50 -25 0 170 0
170 -75 0 -75 0 0 -139z m-2 -373 c-3 -104 -5 -122 -18 -119 -8 3 -38 4 -65 3
-47 -2 -54 0 -88 34 -49 50 -51 97 -6 149 29 33 34 35 95 35 36 0 64 4 64 10
0 6 5 10 10 10 7 0 10 -43 8 -122z m756 88 c42 -18 66 -51 66 -94 0 -44 -14
-68 -52 -88 -39 -20 -92 -13 -124 17 -46 44 -23 144 40 169 29 12 32 12 70 -4z"/>
<path d="M3009 939 c-27 -10 -49 -46 -49 -80 0 -30 53 -79 85 -79 36 0 85 52
85 90 0 55 -62 91 -121 69z"/>
<path d="M5524 676 c-18 -8 -35 -19 -38 -25 -11 -17 -23 -13 -29 9 -5 18 -14
20 -76 20 l-71 0 0 -220 0 -220 75 0 75 0 0 135 c0 131 1 137 25 160 20 21 34
25 83 25 l59 0 7 -87 c12 -140 41 -188 133 -223 63 -24 101 -25 165 -6 25 8
49 12 52 9 14 -14 4 -45 -25 -78 -27 -31 -37 -35 -78 -35 -27 0 -63 8 -86 20
-50 25 -53 25 -108 -6 -54 -30 -53 -39 9 -87 135 -106 384 -57 425 83 5 19 13
79 17 133 l7 99 31 -44 c18 -26 51 -55 85 -73 45 -24 65 -29 124 -29 60 0 78
4 125 30 29 17 60 40 68 52 13 20 11 23 -20 42 -39 23 -73 25 -108 5 -45 -26
-86 -19 -131 22 -36 33 -39 38 -22 44 10 4 82 8 161 8 l142 1 0 44 c0 61 -14
94 -63 144 -46 47 -86 62 -167 62 -74 0 -133 -31 -187 -98 l-43 -53 0 71 0 70
-70 0 c-52 0 -71 -4 -78 -15 -7 -14 -13 -13 -53 4 -83 38 -164 26 -247 -37
l-33 -25 13 28 c11 24 10 29 -7 41 -24 18 -100 17 -141 0z m910 -103 c26 -25
26 -28 10 -40 -30 -22 -144 -14 -144 10 0 6 10 21 22 34 30 32 78 31 112 -4z
m-477 -37 c74 -87 5 -196 -105 -167 -50 14 -66 44 -59 108 7 65 43 97 101 90
27 -4 49 -15 63 -31z"/>
<path d="M2480 563 c0 -276 35 -324 235 -324 200 0 234 48 235 334 l0 107 -75
0 -75 0 0 -136 0 -136 -29 -29 c-45 -45 -100 -37 -129 18 -8 13 -12 72 -12
152 l0 131 -75 0 -75 0 0 -117z"/>
</g>
</svg>
