<?xml version="1.0" standalone="no"?>
<!DOCTYPE svg PUBLIC "-//W3C//DTD SVG 20010904//EN"
 "http://www.w3.org/TR/2001/REC-SVG-20010904/DTD/svg10.dtd">
<svg version="1.0" xmlns="http://www.w3.org/2000/svg"
 width="319.000000pt" height="282.000000pt" viewBox="0 0 319.000000 282.000000"
 preserveAspectRatio="xMidYMid meet">

<g transform="translate(0.000000,282.000000) scale(0.100000,-0.100000)"
fill="#000000" stroke="none">
<path d="M1410 2795 c-110 -16 -221 -47 -329 -91 -85 -35 -224 -110 -269 -145
-23 -18 -24 -17 -129 47 -58 37 -111 63 -120 60 -8 -3 -12 -10 -9 -15 3 -4
156 -101 340 -215 l334 -206 88 29 c394 131 812 -11 1037 -352 71 -106 128
-268 142 -399 l7 -67 272 -167 c149 -92 294 -183 323 -201 42 -27 53 -30 62
-19 9 11 -7 25 -84 72 l-96 59 5 35 c26 159 15 367 -29 540 -175 690 -845
1138 -1545 1035z"/>
<path d="M20 2495 c-13 -16 -8 -19 278 -195 154 -95 156 -97 138 -141 -5 -11
41 -45 198 -142 113 -70 208 -127 213 -127 9 1 66 80 61 85 -6 6 -869 535
-872 535 -2 0 -9 -7 -16 -15z"/>
<path d="M575 2349 c-25 -26 -45 -52 -45 -56 0 -7 328 -216 414 -264 6 -4 35
17 64 45 l53 52 -220 136 -220 136 -46 -49z"/>
<path d="M141 2211 c-10 -18 0 -26 108 -92 l119 -73 -28 -60 c-15 -34 -35 -86
-45 -116 -10 -30 -19 -57 -21 -59 -2 -2 -26 11 -55 29 -41 27 -52 31 -60 19
-5 -8 -8 -17 -6 -21 1 -4 128 -86 282 -181 l280 -174 8 41 c21 105 40 176 64
234 14 35 23 65 21 66 -1 2 -46 29 -98 61 -192 118 -516 318 -537 332 -19 13
-23 12 -32 -6z"/>
<path d="M246 1688 c-3 -7 -9 -51 -15 -97 -70 -550 200 -1091 684 -1375 260
-152 596 -216 893 -171 175 26 386 100 510 179 23 14 47 26 53 26 6 0 61 -50
123 -110 l113 -111 146 153 146 153 -105 106 -105 105 34 45 c19 24 49 67 66
96 l32 52 107 -66 c59 -36 131 -81 161 -101 51 -32 56 -33 68 -16 7 10 12 18
10 19 -1 2 -78 50 -172 107 -93 58 -262 162 -374 232 -112 70 -205 125 -206
124 -1 -2 -14 -25 -30 -53 -61 -107 -37 -115 -238 78 l-178 170 -25 -24 c-15
-13 -81 -82 -148 -153 l-121 -129 160 -154 c125 -121 156 -156 145 -164 -8 -5
-49 -20 -90 -33 -486 -156 -994 113 -1135 599 -13 47 -28 121 -31 164 l-7 78
-224 139 c-124 76 -229 140 -234 142 -5 2 -11 -2 -13 -10z"/>
<path d="M2461 1173 c-11 -38 -17 -71 -13 -74 4 -4 99 -64 212 -133 184 -114
206 -125 217 -110 14 19 47 114 42 119 -8 6 -430 265 -433 265 -2 0 -13 -30
-25 -67z"/>
</g>
</svg>
